<svg id="philippines-33052" xmlns="http://www.w3.org/2000/svg" width="25.333" height="19" viewBox="0 0 25.333 19">
  <path id="Path_5471" data-name="Path 5471" d="M0,0H25.333V9.5H0Z" fill="#0038a8"/>
  <path id="Path_5472" data-name="Path 5472" d="M0,240H25.333v9.5H0Z" transform="translate(0 -230.5)" fill="#ce1126"/>
  <path id="Path_5473" data-name="Path 5473" d="M16.454,9.5,0,19V0" fill="#fff"/>
  <g id="Group_1699" data-name="Group 1699" transform="translate(0.08 1.143)">
    <circle id="Ellipse_118" data-name="Ellipse 118" cx="1.9" cy="1.9" r="1.9" transform="translate(3.931 6.457)" fill="#fcd116"/>
    <g id="d" transform="translate(1.82 4.346)">
      <g id="c" transform="translate(0 0.698)">
        <g id="b" transform="translate(0 2.639)">
          <path id="Path_5474" data-name="Path 5474" d="M-101.333-6.034l.249.249,3.762-.249-3.762-.249Z" transform="translate(101.333 6.708)" fill="#fcd116"/>
          <path id="a" d="M-90.7.471l.2.2L-87.111,0Z" transform="translate(91.122 0.674)" fill="#fcd116"/>
          <path id="Path_5475" data-name="Path 5475" d="M-90.7-16.829l.2-.2,3.387.674Z" transform="translate(91.122 17.032)" fill="#fcd116"/>
        </g>
        <g id="Group_1689" data-name="Group 1689" transform="translate(1.652 0) rotate(45)">
          <path id="Path_5476" data-name="Path 5476" d="M0,.249.249.5,4.011.249.249,0Z" transform="translate(0 0.426)" fill="#fcd116"/>
          <path id="a-2" data-name="a" d="M0,.471l.2.2L3.59,0Z" transform="translate(0.421 0.674)" fill="#fcd116"/>
          <path id="Path_5477" data-name="Path 5477" d="M0,.2.2,0,3.59.674Z" transform="translate(0.421 0)" fill="#fcd116"/>
        </g>
      </g>
      <g id="Group_1691" data-name="Group 1691" transform="translate(7.324) rotate(90)">
        <g id="b-2" data-name="b" transform="translate(0 2.639)">
          <path id="Path_5478" data-name="Path 5478" d="M0,.249.249.5,4.011.249.249,0Z" transform="translate(0 0.425)" fill="#fcd116"/>
          <path id="a-3" data-name="a" d="M0,.471l.2.2L3.59,0Z" transform="translate(0.421 0.674)" fill="#fcd116"/>
          <path id="Path_5479" data-name="Path 5479" d="M0,.2.2,0,3.59.674Z" transform="translate(0.421)" fill="#fcd116"/>
        </g>
        <g id="Group_1690" data-name="Group 1690" transform="translate(1.652 0) rotate(45)">
          <path id="Path_5480" data-name="Path 5480" d="M0,.249.249.5,4.011.249.249,0Z" transform="translate(0 0.426)" fill="#fcd116"/>
          <path id="a-4" data-name="a" d="M0,.471l.2.2L3.59,0Z" transform="translate(0.421 0.674)" fill="#fcd116"/>
          <path id="Path_5481" data-name="Path 5481" d="M0,.2.2,0,3.59.674Z" transform="translate(0.421 0)" fill="#fcd116"/>
        </g>
      </g>
    </g>
    <g id="Group_1695" data-name="Group 1695" transform="translate(9.842 12.368) rotate(180)">
      <g id="c-2" data-name="c" transform="translate(0 0.698)">
        <g id="b-3" data-name="b" transform="translate(0 2.639)">
          <path id="Path_5482" data-name="Path 5482" d="M0,.249.249.5,4.011.249.249,0Z" transform="translate(0 0.425)" fill="#fcd116"/>
          <path id="a-5" data-name="a" d="M0,.471l.2.2L3.59,0Z" transform="translate(0.421 0.674)" fill="#fcd116"/>
          <path id="Path_5483" data-name="Path 5483" d="M0,.2.2,0,3.59.674Z" transform="translate(0.421)" fill="#fcd116"/>
        </g>
        <g id="Group_1692" data-name="Group 1692" transform="translate(1.652 0) rotate(45)">
          <path id="Path_5484" data-name="Path 5484" d="M0,.249.249.5,4.011.249.249,0Z" transform="translate(0 0.426)" fill="#fcd116"/>
          <path id="a-6" data-name="a" d="M0,.471l.2.2L3.59,0Z" transform="translate(0.421 0.674)" fill="#fcd116"/>
          <path id="Path_5485" data-name="Path 5485" d="M0,.2.2,0,3.59.674Z" transform="translate(0.421 0)" fill="#fcd116"/>
        </g>
      </g>
      <g id="Group_1694" data-name="Group 1694" transform="translate(7.324) rotate(90)">
        <g id="b-4" data-name="b" transform="translate(0 2.639)">
          <path id="Path_5486" data-name="Path 5486" d="M0,.249.249.5,4.011.249.249,0Z" transform="translate(0 0.425)" fill="#fcd116"/>
          <path id="a-7" data-name="a" d="M0,.471l.2.2L3.59,0Z" transform="translate(0.421 0.674)" fill="#fcd116"/>
          <path id="Path_5487" data-name="Path 5487" d="M0,.2.2,0,3.59.674Z" transform="translate(0.421)" fill="#fcd116"/>
        </g>
        <g id="Group_1693" data-name="Group 1693" transform="translate(1.652 0) rotate(45)">
          <path id="Path_5488" data-name="Path 5488" d="M0,.249.249.5,4.011.249.249,0Z" transform="translate(0 0.426)" fill="#fcd116"/>
          <path id="a-8" data-name="a" d="M0,.471l.2.2L3.59,0Z" transform="translate(0.421 0.674)" fill="#fcd116"/>
          <path id="Path_5489" data-name="Path 5489" d="M0,.2.2,0,3.59.674Z" transform="translate(0.421 0)" fill="#fcd116"/>
        </g>
      </g>
    </g>
    <g id="Group_1698" data-name="Group 1698" transform="translate(0 0)">
      <g id="f" transform="translate(12.565 7.353)">
        <path id="e" d="M-19.664,0l-.714.248L-20.393,1-20.85.4l-.723.219.432-.62Z" transform="translate(21.573 1.004)" fill="#fcd116"/>
        <path id="Path_5490" data-name="Path 5490" d="M-19.664-24.361l-.714-.248-.015-.756-.457.6-.723-.219.432.62Z" transform="translate(21.573 25.365)" fill="#fcd116"/>
      </g>
      <g id="Group_1696" data-name="Group 1696" transform="matrix(-0.5, 0.866, -0.866, -0.5, 2.694, 15.06)">
        <path id="e-2" data-name="e" d="M1.91,0,1.2.248,1.18,1,.723.4,0,.62.432,0Z" transform="translate(0 1.004)" fill="#fcd116"/>
        <path id="Path_5491" data-name="Path 5491" d="M1.91,1,1.2.756,1.18,0,.723.6,0,.384.432,1Z" fill="#fcd116"/>
      </g>
      <g id="Group_1697" data-name="Group 1697" transform="matrix(-0.5, -0.866, 0.866, -0.5, 0.955, 2.658)">
        <path id="e-3" data-name="e" d="M1.91,0,1.2.248,1.18,1,.723.4,0,.62.432,0Z" transform="translate(0 1.004)" fill="#fcd116"/>
        <path id="Path_5492" data-name="Path 5492" d="M1.91,1,1.2.756,1.18,0,.723.6,0,.384.432,1Z" fill="#fcd116"/>
      </g>
    </g>
  </g>
</svg>
