<svg width="1125" height="728" viewBox="0 0 1125 728" fill="none" xmlns="http://www.w3.org/2000/svg">
<g clip-path="url(#clip0_9_175)">
<path d="M375 0H750V728H375V0Z" fill="white"/>
<path d="M979 726.179L195.394 -226.064L-229 726.179L979 726.179Z" fill="url(#paint0_linear_9_175)"/>
</g>
<g clip-path="url(#clip1_9_175)">
<path d="M375 0H0V728H375V0Z" fill="#1A1A1A"/>
<path d="M604 1.82104L-179.606 954.065L-604 1.82104L604 1.82104Z" fill="url(#paint1_linear_9_175)"/>
</g>
<g clip-path="url(#clip2_9_175)">
<path d="M1125 0H750V728H1125V0Z" fill="#FF4400"/>
<path d="M1354 1.82104L570.394 954.065L146 1.82104L1354 1.82104Z" fill="url(#paint2_linear_9_175)"/>
</g>
<defs>
<linearGradient id="paint0_linear_9_175" x1="858.2" y1="297.67" x2="57.5162" y2="96.9199" gradientUnits="userSpaceOnUse">
<stop stop-color="#E3E3E3" stop-opacity="0.502"/>
<stop offset="1" stop-color="white" stop-opacity="0"/>
</linearGradient>
<linearGradient id="paint1_linear_9_175" x1="483.2" y1="430.331" x2="-317.484" y2="631.081" gradientUnits="userSpaceOnUse">
<stop stop-color="#232323" stop-opacity="0.502"/>
<stop offset="1" stop-color="#232323" stop-opacity="0"/>
</linearGradient>
<linearGradient id="paint2_linear_9_175" x1="1233.2" y1="430.331" x2="432.516" y2="631.081" gradientUnits="userSpaceOnUse">
<stop stop-color="#E03C00"/>
<stop offset="1" stop-color="#E03C00" stop-opacity="0"/>
</linearGradient>
<clipPath id="clip0_9_175">
<rect width="375" height="728" fill="white" transform="translate(375)"/>
</clipPath>
<clipPath id="clip1_9_175">
<rect width="375" height="728" fill="white"/>
</clipPath>
<clipPath id="clip2_9_175">
<rect width="375" height="728" fill="white" transform="translate(750)"/>
</clipPath>
</defs>
</svg>
